<?xml version="1.0" encoding="UTF-8" standalone="no"?><!DOCTYPE svg PUBLIC "-//W3C//DTD SVG 1.1//EN" "http://www.w3.org/Graphics/SVG/1.1/DTD/svg11.dtd"><svg width="100%" height="100%" viewBox="0 0 20 20" version="1.1" xmlns="http://www.w3.org/2000/svg" xmlns:xlink="http://www.w3.org/1999/xlink" xml:space="preserve" xmlns:serif="http://www.serif.com/" style="fill-rule:evenodd;clip-rule:evenodd;stroke-linejoin:round;stroke-miterlimit:1.41421;"><g id="thick"><path d="M1.178,1.175c0.649,-0.649 1.701,-0.649 2.35,0c3.208,3.208 12.089,12.089 15.297,15.297c0.649,0.649 0.649,1.701 0,2.35c-0.001,0.001 -0.002,0.002 -0.003,0.003c-0.649,0.649 -1.701,0.649 -2.35,0c-3.208,-3.208 -12.089,-12.089 -15.297,-15.297c-0.649,-0.649 -0.649,-1.701 0,-2.35c0.001,-0.001 0.002,-0.002 0.003,-0.003Z"/><path d="M18.822,1.175c-0.649,-0.649 -1.701,-0.649 -2.35,0c-3.208,3.208 -12.089,12.089 -15.297,15.297c-0.649,0.649 -0.649,1.701 0,2.35c0.001,0.001 0.002,0.002 0.003,0.003c0.649,0.649 1.701,0.649 2.35,0c3.208,-3.208 12.089,-12.089 15.297,-15.297c0.649,-0.649 0.649,-1.701 0,-2.35c-0.001,-0.001 -0.002,-0.002 -0.003,-0.003Z"/></g></svg>